<svg width="40" height="40" viewBox="0 0 40 40" fill="none" xmlns="http://www.w3.org/2000/svg">
    <circle cx="20" cy="20" r="20" fill="#DE7254"/>
    <path d="M15.6 13.4H24.4C25.1333 13.4 25.7333 14 25.7333 14.7334V16.2C25.7333 16.7334 25.4 17.4 25.0667 17.7334L22.2 20.2667C21.8 20.6 21.5333 21.2667 21.5333 21.8V24.6667C21.5333 25.0667 21.2667 25.6 20.9333 25.8L20 26.4C19.1333 26.9334 17.9333 26.3334 17.9333 25.2667V21.7334C17.9333 21.2667 17.6667 20.6667 17.4 20.3334L14.8667 17.6667C14.5333 17.3334 14.2667 16.7334 14.2667 16.3334V14.8C14.2667 14 14.8667 13.4 15.6 13.4Z" stroke="white" stroke-width="1.5" stroke-miterlimit="10" stroke-linecap="round" stroke-linejoin="round"/>
    <path d="M19.2867 13.4L16 18.6667" stroke="white" stroke-width="1.5" stroke-miterlimit="10" stroke-linecap="round" stroke-linejoin="round"/>
</svg>
