<svg width="12" height="12" viewBox="0 0 12 12" fill="none" xmlns="http://www.w3.org/2000/svg">
    <path d="M10.1165 4.4347L10.1165 4.4364C10.1177 4.97911 9.9108 5.50044 9.54045 5.8912C9.19766 6.25036 8.86184 6.61077 8.52772 6.96937C7.86162 7.68427 7.20223 8.39196 6.50757 9.06819C6.42592 9.14533 6.29786 9.14185 6.22082 9.0612L3.19433 5.89113C3.19432 5.89112 3.19431 5.89112 3.19431 5.89111C2.42702 5.0873 2.42711 3.78368 3.19426 2.98038L3.19602 2.97853C3.3751 2.7886 3.59025 2.63764 3.82829 2.53458C4.06633 2.43152 4.32243 2.37845 4.58113 2.37845C4.83982 2.37845 5.09592 2.43152 5.33396 2.53458C5.572 2.63764 5.78715 2.7886 5.96623 2.97853L5.96622 2.97854L5.96882 2.98125L6.07918 3.09612C6.15469 3.17471 6.25901 3.21909 6.368 3.21899C6.47699 3.21889 6.58122 3.17431 6.65659 3.09557L6.76653 2.98071L6.76654 2.98071L6.768 2.97917C6.94765 2.78947 7.16311 2.6386 7.40136 2.5354C7.63943 2.43227 7.89548 2.37878 8.15423 2.37803C8.67265 2.37817 9.17122 2.59301 9.53996 2.97974C9.91052 3.37046 10.1176 3.89186 10.1165 4.4347Z" fill="white" stroke="white" stroke-width="0.8" stroke-linejoin="round"/>
</svg>
