<svg width="26" height="25" viewBox="0 0 26 25" fill="none" xmlns="http://www.w3.org/2000/svg">
    <path fill-rule="evenodd" clip-rule="evenodd" d="M15.961 21.599V18.5C15.961 18.0353 15.961 17.803 15.9225 17.6098C15.7647 16.8164 15.1445 16.1962 14.3511 16.0384C14.1579 16 13.9256 16 13.461 16C12.9963 16 12.764 16 12.5708 16.0384C11.7774 16.1962 11.1572 16.8164 10.9994 17.6098C10.961 17.803 10.961 18.0353 10.961 18.5V21.599H9.67784C9.32383 21.599 8.78326 21.5317 8.24339 21.3815C7.71827 21.2353 7.07935 20.98 6.62822 20.5327C6.33538 20.2423 6.09042 19.9974 5.74314 19.4184L5.72841 19.3938C5.53026 19.0635 5.39042 18.8304 5.26291 18.4621C5.13521 18.0933 5.09128 17.7471 5.02861 17.2534L5.02861 17.2533L5.02861 17.2533L5.02133 17.196L4.27943 11.3603C4.27544 11.3289 4.27344 11.2973 4.27344 11.2657C4.27344 10.1746 4.7816 9.14631 5.64761 8.47908L5.64794 8.47883L11.2507 4.15829L13.4602 4.15825V4.375H13.4602V4.15825L15.6697 4.15829L21.2725 8.47883L21.2728 8.47908C22.1388 9.14631 22.647 10.1746 22.647 11.2657C22.647 11.2973 22.645 11.3289 22.641 11.3603L21.8991 17.196L21.8918 17.2533L21.8918 17.2533C21.8291 17.7471 21.7852 18.0933 21.6575 18.4621C21.53 18.8304 21.3901 19.0635 21.192 19.3938L21.1773 19.4184C20.83 19.9974 20.585 20.2423 20.2922 20.5327C19.841 20.98 19.2021 21.2353 18.677 21.3815C18.1371 21.5317 17.5966 21.599 17.2426 21.599H15.961ZM11.2508 4.15825L13.4602 4.15823V3.41713L13.4287 3.41699C12.6405 3.41699 11.8742 3.67744 11.2508 4.15825ZM15.6696 4.15825L13.4602 4.15823V3.41713L13.4917 3.41699C14.2799 3.41699 15.0462 3.67744 15.6696 4.15825Z" fill="url(#paint0_radial_1489_792)"/>
    <defs>
        <radialGradient id="paint0_radial_1489_792" cx="0" cy="0" r="1" gradientUnits="userSpaceOnUse" gradientTransform="translate(4.27344 0.457124) rotate(54.1508) scale(26.0831 26.1703)">
            <stop offset="0.046875" stop-color="#234F68"/>
            <stop offset="0.983052" stop-color="#234F68" stop-opacity="0.83"/>
        </radialGradient>
    </defs>
</svg>
