<svg width="430" height="932" viewBox="0 0 430 932" fill="none" xmlns="http://www.w3.org/2000/svg">
    <g clip-path="url(#clip0_1_5)">
        <rect width="430" height="932" rx="25" fill="white"/>
        <g filter="url(#filter0_d_1_5)">
            <path d="M283.217 354.882C282.77 355.259 282.312 355.687 281.926 356.135C280.32 357.994 281.99 360.732 282.56 363.122L285.15 373.974L287.698 384.651L290.659 397.059C291.326 399.856 294.135 401.582 296.931 400.914C299.005 400.42 300.568 398.71 300.875 396.6L301.383 393.113C301.53 392.105 301.824 391.123 302.256 390.2L302.757 389.131C304.793 384.785 308.448 381.407 312.941 379.72L317.961 377.835C319.923 377.098 321.989 376.674 324.084 376.579L327.979 376.402C330.334 376.295 332.688 376.636 334.916 377.407C338.435 378.625 341.508 380.87 343.738 383.852L349.123 391.052C350.673 393.124 353.305 394.076 355.821 393.476C359.305 392.645 361.455 389.147 360.624 385.663L349.19 337.752C348.347 334.22 344.8 332.039 341.267 332.882C338.791 333.473 336.878 335.441 336.357 337.933L334.255 347.985C333.82 350.065 333.039 352.057 331.944 353.879C329.317 358.248 325.044 361.376 320.085 362.559L317.68 363.133L307.178 364.286C303.659 364.672 300.109 363.93 297.039 362.167L296.573 361.899C295.001 360.996 293.619 359.795 292.505 358.364L290.731 356.083C289.921 355.042 288.78 354.309 287.496 354.007C285.997 353.654 284.395 353.888 283.217 354.882Z" fill="#383323"/>
            <path d="M283.217 354.882C282.77 355.259 282.312 355.687 281.926 356.135C280.32 357.994 281.99 360.732 282.56 363.122L285.15 373.974L287.698 384.651L290.659 397.059C291.326 399.856 294.135 401.582 296.931 400.914C299.005 400.42 300.568 398.71 300.875 396.6L301.383 393.113C301.53 392.105 301.824 391.123 302.256 390.2L302.757 389.131C304.793 384.785 308.448 381.407 312.941 379.72L317.961 377.835C319.923 377.098 321.989 376.674 324.084 376.579L327.979 376.402C330.334 376.295 332.688 376.636 334.916 377.407C338.435 378.625 341.508 380.87 343.738 383.852L349.123 391.052C350.673 393.124 353.305 394.076 355.821 393.476C359.305 392.645 361.455 389.147 360.624 385.663L349.19 337.752C348.347 334.22 344.8 332.039 341.267 332.882C338.791 333.473 336.878 335.441 336.357 337.933L334.255 347.985C333.82 350.065 333.039 352.057 331.944 353.879C329.317 358.248 325.044 361.376 320.085 362.559L317.68 363.133L307.178 364.286C303.659 364.672 300.109 363.93 297.039 362.167L296.573 361.899C295.001 360.996 293.619 359.795 292.505 358.364L290.731 356.083C289.921 355.042 288.78 354.309 287.496 354.007C285.997 353.654 284.395 353.888 283.217 354.882Z" stroke="#343226"/>
        </g>
        <path d="M338.906 359.507C341.601 358.863 344.39 360.872 345.135 363.993C345.879 367.113 344.298 370.165 341.602 370.808C338.907 371.451 336.118 369.443 335.373 366.322C334.629 363.201 336.21 360.15 338.906 359.507Z" fill="#96800D"/>
        <path d="M294.536 370.095C297.232 369.452 300.021 371.46 300.765 374.581C301.51 377.702 299.929 380.753 297.233 381.396C294.538 382.039 291.749 380.031 291.004 376.91C290.259 373.79 291.841 370.738 294.536 370.095Z" fill="#96800D"/>
        <path d="M295.853 376.591C296.644 376.402 297.474 376.312 296.88 375.161C296.677 374.769 295.513 375.169 295.672 375.835" stroke="#655418" stroke-width="3" stroke-linecap="round"/>
        <path d="M341.309 365.476C340.838 365.589 340.109 365.006 340.693 364.824" stroke="#655418" stroke-width="3" stroke-linecap="round"/>
        <rect x="358.579" y="392.817" width="62.317" height="65.6863" transform="rotate(-103.422 358.579 392.817)" fill="#F4E8AA"/>
        <line y1="-0.5" x2="58.0981" y2="-0.5" transform="matrix(-0.247367 -0.968922 0.967586 -0.252541 361.884 390.943)" stroke="black"/>
        <path d="M364.992 390.212L350.62 333.919" stroke="black"/>
        <line y1="-0.5" x2="58.0981" y2="-0.5" transform="matrix(-0.247367 -0.968922 0.967586 -0.252541 368.983 389.249)" stroke="black"/>
        <path opacity="0.9" d="M435.653 452.065L386.211 244.883L426.94 235.163L476.382 442.346L435.653 452.065Z" fill="#54381E"/>
        <path d="M500.026 395.995C464.29 429.401 442.982 452.986 452.422 407.355L463.544 364.512L500.026 395.995Z" fill="#F4E8AA"/>
    </g>
    <defs>
        <filter id="filter0_d_1_5" x="276.747" y="332.201" width="88.5556" height="77.3569" filterUnits="userSpaceOnUse" color-interpolation-filters="sRGB">
            <feFlood flood-opacity="0" result="BackgroundImageFix"/>
            <feColorMatrix in="SourceAlpha" type="matrix" values="0 0 0 0 0 0 0 0 0 0 0 0 0 0 0 0 0 0 127 0" result="hardAlpha"/>
            <feOffset dy="4"/>
            <feGaussianBlur stdDeviation="2"/>
            <feComposite in2="hardAlpha" operator="out"/>
            <feColorMatrix type="matrix" values="0 0 0 0 0 0 0 0 0 0 0 0 0 0 0 0 0 0 0.25 0"/>
            <feBlend mode="normal" in2="BackgroundImageFix" result="effect1_dropShadow_1_5"/>
            <feBlend mode="normal" in="SourceGraphic" in2="effect1_dropShadow_1_5" result="shape"/>
        </filter>
        <clipPath id="clip0_1_5">
            <rect width="430" height="932" rx="25" fill="white"/>
        </clipPath>
    </defs>
</svg>
