<svg width="436" height="936" viewBox="0 0 436 936" fill="none" xmlns="http://www.w3.org/2000/svg">
    <g clip-path="url(#clip0_541_1669)">
        <rect width="434" height="935" transform="translate(0 0.690613) rotate(-0.0911755)" fill="url(#paint0_linear_541_1669)"/>
        <g filter="url(#filter0_d_541_1669)">
            <path d="M287.163 297.133C286.681 297.565 286.189 298.057 285.79 298.57C284.291 300.497 285.966 303.148 286.506 305.503L289.169 317.133L291.735 328.336L294.776 341.612C295.415 344.405 298.186 346.101 300.964 345.4C303.051 344.874 304.624 343.107 304.919 340.959L305.441 337.148C305.582 336.121 305.868 335.117 306.29 334.167L306.765 333.097C308.814 328.486 312.584 324.856 317.24 323.013L321.867 321.181C323.906 320.373 326.057 319.906 328.233 319.799L331.876 319.619C334.313 319.499 336.741 319.862 339.022 320.686C342.492 321.94 345.493 324.217 347.644 327.225L353.239 335.051C354.747 337.16 357.382 338.119 359.916 337.48C363.375 336.608 365.533 333.082 364.737 329.605L353.074 278.681C352.266 275.156 348.77 273.016 345.263 273.9C342.768 274.529 340.84 276.57 340.337 279.116L338.202 289.923C337.79 292.01 337.04 294.02 335.983 295.872C333.336 300.51 328.929 303.874 323.806 305.166L321.681 305.702L311.378 306.905C307.737 307.331 304.081 306.548 300.965 304.676L300.59 304.451C299.004 303.498 297.62 302.243 296.512 300.753L294.657 298.259C293.887 297.223 292.784 296.49 291.531 296.182C290.005 295.808 288.356 296.066 287.163 297.133Z" fill="#383323"/>
            <path d="M287.163 297.133C286.681 297.565 286.189 298.057 285.79 298.57C284.291 300.497 285.966 303.148 286.506 305.503L289.169 317.133L291.735 328.336L294.776 341.612C295.415 344.405 298.186 346.101 300.964 345.4C303.051 344.874 304.624 343.107 304.919 340.959L305.441 337.148C305.582 336.121 305.868 335.117 306.29 334.167L306.765 333.097C308.814 328.486 312.584 324.856 317.24 323.013L321.867 321.181C323.906 320.373 326.057 319.906 328.233 319.799L331.876 319.619C334.313 319.499 336.741 319.862 339.022 320.686C342.492 321.94 345.493 324.217 347.644 327.225L353.239 335.051C354.747 337.16 357.382 338.119 359.916 337.48C363.375 336.608 365.533 333.082 364.737 329.605L353.074 278.681C352.266 275.156 348.77 273.016 345.263 273.9C342.768 274.529 340.84 276.57 340.337 279.116L338.202 289.923C337.79 292.01 337.04 294.02 335.983 295.872C333.336 300.51 328.929 303.874 323.806 305.166L321.681 305.702L311.378 306.905C307.737 307.331 304.081 306.548 300.965 304.676L300.59 304.451C299.004 303.498 297.62 302.243 296.512 300.753L294.657 298.259C293.887 297.223 292.784 296.49 291.531 296.182C290.005 295.808 288.356 296.066 287.163 297.133Z" stroke="black"/>
        </g>
        <path d="M342.901 301.861C345.595 301.182 348.388 303.286 349.138 306.56C349.888 309.835 348.311 313.04 345.617 313.72C342.922 314.399 340.13 312.295 339.38 309.021C338.63 305.746 340.207 302.541 342.901 301.861Z" fill="#96800D"/>
        <path d="M298.549 313.046C301.244 312.367 304.036 314.47 304.786 317.745C305.536 321.019 303.96 324.225 301.265 324.904C298.571 325.584 295.779 323.48 295.029 320.205C294.279 316.931 295.855 313.725 298.549 313.046Z" fill="#96800D"/>
        <path d="M299.877 319.863C300.667 319.663 301.497 319.568 300.902 318.36C300.698 317.948 299.535 318.37 299.695 319.069" stroke="black" stroke-width="3" stroke-linecap="round"/>
        <path d="M345.314 308.124C344.844 308.242 344.114 307.633 344.697 307.441" stroke="black" stroke-width="3" stroke-linecap="round"/>
        <rect width="65.2485" height="65.8662" transform="matrix(-0.223245 -0.974762 0.969643 -0.244526 362.63 336.795)" fill="#F4E8AA"/>
        <line y1="-0.5" x2="60.8105" y2="-0.5" transform="matrix(-0.23788 -0.971295 0.964039 -0.26576 365.932 334.822)" stroke="black"/>
        <path d="M369.039 334.05L354.573 274.985" stroke="black"/>
        <line y1="-0.5" x2="60.8105" y2="-0.5" transform="matrix(-0.23788 -0.971295 0.964039 -0.26576 373.028 333.033)" stroke="black"/>
        <path opacity="0.9" d="M436.521 400.054L386.733 182.662L427.446 172.395L477.234 389.787L436.521 400.054Z" fill="#54381E"/>
        <path d="M504.083 339.905C468.402 375.027 447.133 399.817 456.497 351.905L467.548 306.917L504.083 339.905Z" fill="#F4E8AA"/>
        <path fill-rule="evenodd" clip-rule="evenodd" d="M400.945 143.55C394.287 145.021 390.284 151.561 392.004 158.159L396.422 175.109C397.229 178.205 399.153 180.764 401.656 182.456L402.675 186.362L411.578 184.396C411.582 184.395 411.587 184.394 411.591 184.393C411.596 184.392 411.6 184.391 411.605 184.39L420.508 182.424L419.489 178.518C420.886 175.965 421.339 172.881 420.532 169.784L416.114 152.834C414.394 146.237 407.603 142.08 400.945 143.55ZM419.489 178.518L412.329 151.048L394.496 154.987L401.656 182.456C404.483 184.367 408.049 185.171 411.578 184.396L411.605 184.39C415.131 183.607 417.912 181.401 419.489 178.518Z" fill="#A5A4A1"/>
        <path d="M403.249 161.43C403.023 160.623 403.313 159.76 403.981 159.254C405.113 158.396 406.753 158.928 407.166 160.287L412.259 177.063C412.622 178.259 411.931 179.52 410.728 179.857C409.543 180.189 408.313 179.498 407.98 178.312L403.249 161.43Z" fill="#BDB29B"/>
        <path d="M404.985 158.841C405.038 158.946 405.09 159.051 405.141 159.157C405.165 159.205 405.439 159.766 405.349 159.602C405.323 159.555 405.297 159.506 405.271 159.457C405.166 159.259 405.059 159.05 404.955 158.867C404.764 158.526 404.61 158.319 404.46 158.114C403.926 157.385 403.762 157.593 403.582 157.708C403.514 157.752 403.479 157.846 403.474 158.019C403.469 158.178 403.497 158.399 403.469 158.514C403.448 158.602 403.404 158.639 403.349 158.654C403.331 158.659 403.284 158.622 403.276 158.647C403.265 158.676 403.862 159.933 403.93 160.078C404.116 160.474 404.287 160.799 404.457 161.114C404.478 161.152 404.499 161.191 404.521 161.231C404.553 161.291 404.586 161.35 404.619 161.411C404.639 161.445 404.658 161.479 404.678 161.513C404.962 161.997 405.265 162.546 405.538 163.001C405.572 163.057 405.594 163.094 405.608 163.117C405.628 163.15 405.634 163.16 405.608 163.117C405.581 163.074 405.529 162.992 405.493 162.945C405.367 162.777 405.222 162.56 405.083 162.358C405.034 162.286 404.997 162.237 404.939 162.13C404.829 161.925 404.707 161.673 404.595 161.455C404.579 161.424 404.49 161.244 404.414 161.088C404.391 161.046 404.368 161.004 404.344 160.961C404.142 160.632 403.92 160.225 403.708 159.854C403.581 159.65 403.455 159.45 403.328 159.245C403.282 159.171 403.235 159.092 403.187 159.013C403.149 158.955 403.111 158.897 403.072 158.837C403.061 158.819 402.991 158.695 403.04 158.772C403.087 158.846 403.137 158.929 403.187 159.013C403.303 159.188 403.417 159.36 403.545 159.574C403.598 159.663 403.653 159.758 403.708 159.854C403.773 159.959 403.839 160.065 403.905 160.173C403.818 160.016 403.732 159.857 403.644 159.707C403.519 159.494 403.416 159.34 403.305 159.176C403.147 158.939 402.961 158.598 402.778 158.267C402.747 158.211 402.645 158.028 402.606 157.941C402.569 157.858 402.755 157.564 402.774 157.535C402.826 157.461 402.832 157.295 402.89 157.236C402.919 157.206 402.974 157.229 402.973 157.136C402.97 156.921 402.996 156.759 403.079 156.721L403.369 156.588C403.415 156.567 403.452 156.525 403.528 156.569C403.644 156.636 403.662 156.482 403.781 156.558C403.825 156.586 403.815 156.563 403.89 156.708C403.926 156.778 403.97 156.84 403.999 156.881C404.171 157.128 404.46 157.775 404.654 158.16C404.763 158.375 404.875 158.606 404.985 158.841Z" fill="#BDB29B"/>
        <path d="M402.943 158.051C402.979 157.881 403.042 157.741 403.138 157.697C403.229 157.656 403.215 157.38 403.263 157.247C403.297 157.153 403.383 157.163 403.448 157.133C403.521 157.1 403.594 157.066 403.668 157.032C403.729 157.004 403.84 157.086 403.934 157.134C404.05 157.193 404.102 157.147 404.348 157.555C404.453 157.729 404.592 158.051 404.699 158.268C404.846 158.565 404.995 158.858 405.141 159.157C405.165 159.205 405.439 159.766 405.349 159.602C405.219 159.363 405.084 159.096 404.955 158.867C404.764 158.526 404.61 158.319 404.46 158.114C403.926 157.385 403.762 157.593 403.582 157.708C403.514 157.752 403.479 157.846 403.474 158.019C403.469 158.178 403.497 158.399 403.469 158.514C403.448 158.602 403.404 158.639 403.349 158.654C403.331 158.659 403.284 158.622 403.276 158.647C403.265 158.676 403.862 159.933 403.93 160.078C404.269 160.799 404.554 161.282 404.887 161.905C405.085 162.279 404.885 161.914 404.806 161.769C404.65 161.481 404.454 161.089 404.309 160.858C404.262 160.784 404.565 161.396 404.595 161.455C404.707 161.673 404.829 161.925 404.939 162.13C404.997 162.237 405.034 162.286 405.083 162.358C405.222 162.56 405.367 162.777 405.493 162.945C405.571 163.047 405.722 163.307 405.538 163.001C405.169 162.386 404.745 161.6 404.389 161.033C404.123 160.61 403.818 160.032 403.545 159.574C403.375 159.289 403.229 159.079 403.072 158.837C403.061 158.819 402.991 158.695 403.04 158.772C403.131 158.915 403.234 159.093 403.328 159.245C403.533 159.576 403.734 159.892 403.943 160.236C404.087 160.473 404.248 160.766 404.399 161.031C404.579 161.346 404.756 161.639 404.94 161.977C405.024 162.13 404.766 161.713 404.755 161.693C404.517 161.288 404.268 160.813 404.029 160.394C403.9 160.168 403.773 159.928 403.644 159.707C403.519 159.494 403.416 159.34 403.305 159.176C403.147 158.939 402.961 158.598 402.778 158.267C402.747 158.211 402.645 158.028 402.606 157.941C402.569 157.858 402.755 157.564 402.774 157.535C402.826 157.461 402.832 157.295 402.89 157.236C402.919 157.206 402.974 157.229 402.973 157.136C402.97 156.921 402.996 156.759 403.079 156.721C403.176 156.677 403.272 156.633 403.369 156.588C403.415 156.567 403.452 156.525 403.528 156.569C403.644 156.636 403.662 156.482 403.781 156.558C403.825 156.586 403.815 156.563 403.89 156.708C403.926 156.778 403.97 156.84 403.999 156.881C404.171 157.128 404.46 157.775 404.654 158.16C404.894 158.635 405.146 159.183 405.375 159.684" stroke="#BDB29B" stroke-width="3" stroke-linecap="round"/>
        <rect x="397.976" y="180.548" width="24.0147" height="7.81687" transform="rotate(-14.5849 397.976 180.548)" fill="#61462E"/>
    </g>
    <defs>
        <filter id="filter0_d_541_1669" x="280.684" y="273.198" width="88.7151" height="80.8628" filterUnits="userSpaceOnUse" color-interpolation-filters="sRGB">
            <feFlood flood-opacity="0" result="BackgroundImageFix"/>
            <feColorMatrix in="SourceAlpha" type="matrix" values="0 0 0 0 0 0 0 0 0 0 0 0 0 0 0 0 0 0 127 0" result="hardAlpha"/>
            <feOffset dy="4"/>
            <feGaussianBlur stdDeviation="2"/>
            <feComposite in2="hardAlpha" operator="out"/>
            <feColorMatrix type="matrix" values="0 0 0 0 0 0 0 0 0 0 0 0 0 0 0 0 0 0 0.25 0"/>
            <feBlend mode="normal" in2="BackgroundImageFix" result="effect1_dropShadow_541_1669"/>
            <feBlend mode="normal" in="SourceGraphic" in2="effect1_dropShadow_541_1669" result="shape"/>
        </filter>
        <linearGradient id="paint0_linear_541_1669" x1="217" y1="0" x2="217" y2="935" gradientUnits="userSpaceOnUse">
            <stop stop-color="#FFEBDD"/>
            <stop offset="1" stop-color="#998D85"/>
        </linearGradient>
        <clipPath id="clip0_541_1669">
            <rect width="434" height="935" fill="white" transform="translate(0 0.690613) rotate(-0.0911755)"/>
        </clipPath>
    </defs>
</svg>
