<svg width="26" height="25" viewBox="0 0 26 25" fill="none" xmlns="http://www.w3.org/2000/svg">
    <path d="M19.3187 19C17.7678 20.3986 15.7138 21.25 13.4609 21.25C11.07 21.25 8.90312 20.2911 7.32379 18.7368" stroke="#252B5C" stroke-width="1.6" stroke-linecap="round"/>
    <path d="M18.9319 18.5516C18.7688 18.349 18.5942 18.1544 18.4086 17.9688C17.0411 16.6014 15.1865 15.8331 13.2526 15.8331C11.3187 15.8331 9.46406 16.6014 8.0966 17.9688C7.85112 18.2143 7.62495 18.4755 7.41907 18.75" stroke="#252B5C" stroke-width="1.6" stroke-linecap="round" stroke-linejoin="round"/>
    <path d="M13.4609 15C14.4555 15 15.4093 14.6049 16.1126 13.9017C16.8158 13.1984 17.2109 12.2446 17.2109 11.25C17.2109 10.2554 16.8158 9.30161 16.1126 8.59835C15.4093 7.89509 14.4555 7.5 13.4609 7.5C12.4664 7.5 11.5125 7.89509 10.8093 8.59835C10.106 9.30161 9.71094 10.2554 9.71094 11.25C9.71094 12.2446 10.106 13.1984 10.8093 13.9017C11.5125 14.6049 12.4664 15 13.4609 15V15Z" stroke="#252B5C" stroke-width="1.6" stroke-linecap="round" stroke-linejoin="round"/>
</svg>