<svg width="12" height="13" viewBox="0 0 12 13" fill="none" xmlns="http://www.w3.org/2000/svg">
    <path d="M10.635 10.2C9.39426 11.3189 7.75106 12 5.94877 12C4.03606 12 2.30252 11.2329 1.03906 9.9895" stroke="#252B5C" stroke-width="1.6" stroke-linecap="round"/>
    <path d="M10.3265 9.84129C10.196 9.67924 10.0563 9.52355 9.90782 9.37505C8.81386 8.28109 7.33013 7.6665 5.78303 7.6665C4.23593 7.6665 2.7522 8.28109 1.65824 9.37505C1.46185 9.57143 1.28092 9.78038 1.11621 10" stroke="#252B5C" stroke-width="1.6" stroke-linecap="round" stroke-linejoin="round"/>
    <path d="M5.94922 7C6.74487 7 7.50793 6.68393 8.07054 6.12132C8.63315 5.55871 8.94922 4.79565 8.94922 4C8.94922 3.20435 8.63315 2.44129 8.07054 1.87868C7.50793 1.31607 6.74487 1 5.94922 1C5.15357 1 4.39051 1.31607 3.8279 1.87868C3.26529 2.44129 2.94922 3.20435 2.94922 4C2.94922 4.79565 3.26529 5.55871 3.8279 6.12132C4.39051 6.68393 5.15357 7 5.94922 7V7Z" stroke="#252B5C" stroke-width="1.6" stroke-linecap="round" stroke-linejoin="round"/>
</svg>