<svg width="25" height="24" viewBox="0 0 25 24" fill="none" xmlns="http://www.w3.org/2000/svg">
    <path d="M12.64 15.0701V13.11C12.64 10.59 14.68 8.54004 17.21 8.54004H19.17" stroke="#FAF9F9" stroke-width="1.5" stroke-linecap="round" stroke-linejoin="round"/>
    <path d="M6.12 8.55005H8.08002C10.6 8.55005 12.65 10.59 12.65 13.12V13.7701V17.25" stroke="#FAF9F9" stroke-width="1.5" stroke-linecap="round" stroke-linejoin="round"/>
    <path d="M7.64001 6.75L5.84003 8.55L7.64001 10.35" stroke="#FAF9F9" stroke-width="1.5" stroke-linecap="round" stroke-linejoin="round"/>
    <path d="M17.36 6.75L19.16 8.55L17.36 10.35" stroke="#FAF9F9" stroke-width="1.5" stroke-linecap="round" stroke-linejoin="round"/>
    <path d="M9.5 22H15.5C20.5 22 22.5 20 22.5 15V9C22.5 4 20.5 2 15.5 2H9.5C4.5 2 2.5 4 2.5 9V15C2.5 20 4.5 22 9.5 22Z" stroke="white" stroke-opacity="0.4" stroke-width="1.5" stroke-linecap="round" stroke-linejoin="round"/>
</svg>
