<svg width="56" height="57" viewBox="0 0 56 57" fill="none" xmlns="http://www.w3.org/2000/svg">
    <rect x="0.0390625" y="0.453613" width="54.9837" height="56.5464" rx="25" fill="#F5F4F8"/>
    <path d="M36.9381 26.6329C36.9168 26.5341 36.875 26.4411 36.8158 26.3604C36.7565 26.2796 36.681 26.2128 36.5945 26.1646L34.5498 24.9983C34.4401 24.7698 34.3168 24.5485 34.1803 24.3357L34.2233 21.9325C34.2241 21.8317 34.2046 21.7318 34.1662 21.6391C34.1278 21.5463 34.0712 21.4627 33.9999 21.3935C32.9818 20.4442 31.7778 19.7302 30.4689 19.2995C30.3749 19.2694 30.2758 19.2601 30.1781 19.2723C30.0803 19.2845 29.9862 19.3179 29.9019 19.3702L27.9002 20.6072C27.651 20.5983 27.4105 20.5983 27.1613 20.6072L25.1596 19.3702C25.0753 19.3179 24.9812 19.2845 24.8834 19.2723C24.7857 19.2601 24.6866 19.2694 24.5926 19.2995C23.2819 19.7305 22.0774 20.4479 21.0616 21.4024C20.9897 21.4692 20.9326 21.5511 20.8941 21.6425C20.8555 21.734 20.8365 21.8328 20.8382 21.9325L20.8812 24.3357C20.7437 24.5477 20.6234 24.7686 20.5032 24.9983L18.4584 26.1646C18.3732 26.2133 18.2991 26.2804 18.2413 26.3612C18.1834 26.442 18.1432 26.5347 18.1234 26.6329C17.8313 28.0127 17.8313 29.441 18.1234 30.8209C18.1447 30.9197 18.1865 31.0126 18.2457 31.0934C18.305 31.1742 18.3805 31.2409 18.467 31.2891L20.5117 32.4554C20.6214 32.684 20.7447 32.9053 20.8812 33.1181L20.8382 35.5213C20.8374 35.6221 20.8569 35.722 20.8953 35.8147C20.9337 35.9074 20.9903 35.991 21.0616 36.0602C22.0797 37.0095 23.2837 37.7236 24.5926 38.1542C24.6866 38.1844 24.7857 38.1936 24.8834 38.1815C24.9812 38.1693 25.0753 38.1359 25.1596 38.0835L27.1613 36.8466H27.9002L29.9105 38.0835C30.015 38.1542 30.1377 38.1911 30.2628 38.1896C30.3326 38.1865 30.4019 38.1746 30.4689 38.1542C31.7796 37.7232 32.9841 37.0059 33.9999 36.0514C34.0718 35.9846 34.1289 35.9027 34.1674 35.8112C34.206 35.7198 34.225 35.6209 34.2233 35.5213L34.1803 33.1181C34.3178 32.906 34.4381 32.6851 34.5584 32.4554L36.6031 31.2891C36.6883 31.2404 36.7624 31.1734 36.8202 31.0926C36.8781 31.0118 36.9183 30.9191 36.9381 30.8209C37.2302 29.441 37.2302 28.0127 36.9381 26.6329ZM35.6494 30.2112L33.6992 31.3245C33.5755 31.3984 33.4766 31.5094 33.4157 31.6426C33.2744 31.9437 33.1107 32.2332 32.926 32.5084C32.8476 32.6319 32.8058 32.7762 32.8057 32.9237L32.8401 35.212C32.1005 35.8597 31.2537 36.3655 30.3401 36.7052L28.4242 35.5213C28.3173 35.4573 28.1957 35.4237 28.072 35.4241H28.0204C27.6945 35.4506 27.367 35.4506 27.0411 35.4241C26.9002 35.4162 26.7601 35.4499 26.6373 35.5213L24.7214 36.7052C23.8089 36.3671 22.9624 35.8645 22.2214 35.2209L22.2558 32.9237C22.2557 32.7762 22.2139 32.6319 22.1355 32.5084C21.954 32.2311 21.7904 31.9419 21.6458 31.6426C21.5824 31.5111 21.4841 31.4009 21.3623 31.3245L19.4121 30.2112C19.2402 29.2296 19.2402 28.2242 19.4121 27.2425L21.3623 26.1293C21.486 26.0553 21.5849 25.9444 21.6458 25.8112C21.7871 25.5101 21.9508 25.2206 22.1355 24.9453C22.2139 24.8219 22.2557 24.6776 22.2558 24.5301L22.2214 22.2417C22.9611 21.594 23.8079 21.0883 24.7214 20.7485L26.6373 21.9325C26.7597 22.0048 26.9001 22.0386 27.0411 22.0297C27.367 22.0032 27.6945 22.0032 28.0204 22.0297C28.1613 22.0376 28.3014 22.0038 28.4242 21.9325L30.3401 20.7485C31.2526 21.0866 32.0991 21.5893 32.8401 22.2329L32.8057 24.5301C32.8058 24.6776 32.8476 24.8219 32.926 24.9453C33.1075 25.2226 33.2711 25.5119 33.4157 25.8112C33.4792 25.9426 33.5774 26.0529 33.6992 26.1293L35.6494 27.2425C35.8213 28.2242 35.8213 29.2296 35.6494 30.2112ZM27.5308 23.7791C26.5792 23.7791 25.649 24.0693 24.8579 24.6129C24.0667 25.1566 23.45 25.9293 23.0859 26.8334C22.7218 27.7375 22.6265 28.7324 22.8121 29.6921C22.9978 30.6519 23.456 31.5335 24.1288 32.2255C24.8017 32.9175 25.6589 33.3887 26.5922 33.5796C27.5254 33.7705 28.4928 33.6725 29.3719 33.2981C30.251 32.9236 31.0024 32.2894 31.531 31.4757C32.0597 30.6621 32.3418 29.7055 32.3418 28.7269C32.3418 27.4146 31.8349 26.1561 30.9327 25.2282C30.0304 24.3004 28.8067 23.7791 27.5308 23.7791ZM27.5308 32.261C26.8511 32.261 26.1867 32.0538 25.6215 31.6654C25.0564 31.2771 24.616 30.7251 24.3559 30.0793C24.0958 29.4336 24.0277 28.723 24.1603 28.0374C24.2929 27.3518 24.6202 26.7221 25.1008 26.2279C25.5814 25.7336 26.1937 25.397 26.8603 25.2606C27.5269 25.1243 28.2179 25.1943 28.8458 25.4617C29.4738 25.7292 30.0105 26.1822 30.3881 26.7634C30.7657 27.3446 30.9672 28.0279 30.9672 28.7269C30.9672 29.6642 30.6052 30.5631 29.9607 31.2259C29.3162 31.8887 28.4422 32.261 27.5308 32.261Z" fill="#234F68"/>
</svg>
