<svg width="21" height="20" viewBox="0 0 21 20" fill="none" xmlns="http://www.w3.org/2000/svg">
    <path d="M5.87207 7.5L10.0387 10.4167L14.2054 7.5" stroke="#252B5C" stroke-width="1.6" stroke-linecap="round" stroke-linejoin="round"/>
    <path d="M1.70557 14.1667V5.83341C1.70557 5.39139 1.88116 4.96746 2.19372 4.6549C2.50628 4.34234 2.93021 4.16675 3.37223 4.16675H16.7056C17.1476 4.16675 17.5715 4.34234 17.8841 4.6549C18.1966 4.96746 18.3722 5.39139 18.3722 5.83341V14.1667C18.3722 14.6088 18.1966 15.0327 17.8841 15.3453C17.5715 15.6578 17.1476 15.8334 16.7056 15.8334H3.37223C2.93021 15.8334 2.50628 15.6578 2.19372 15.3453C1.88116 15.0327 1.70557 14.6088 1.70557 14.1667Z" stroke="#252B5C" stroke-width="1.6"/>
</svg>
