<svg width="50" height="50" viewBox="0 0 50 50" fill="none" xmlns="http://www.w3.org/2000/svg">
    <rect width="50" height="50" rx="25" fill="#F5F4F8"/>
    <path d="M21.6667 20.8333H28.3333M32.5 20.8333H28.3333H32.5ZM17.5 20.8333H21.6667H17.5ZM21.6667 20.8333V18C21.6667 17.8674 21.7193 17.7402 21.8131 17.6464C21.9069 17.5527 22.0341 17.5 22.1667 17.5H27.8333C27.9659 17.5 28.0931 17.5527 28.1869 17.6464C28.2807 17.7402 28.3333 17.8674 28.3333 18V20.8333H21.6667Z" stroke="#252B5C" stroke-width="1.6" stroke-linecap="round" stroke-linejoin="round"/>
    <path d="M30.8333 21V32C30.8333 32.1326 30.7807 32.2598 30.6869 32.3536C30.5931 32.4473 28.6326 32.5 28.5 32.5H22C21.8674 32.5 19.4069 32.4473 19.3131 32.3536C19.2193 32.2598 19.1667 32.1326 19.1667 32V21" stroke="#252B5C" stroke-width="1.6" stroke-linecap="round" stroke-linejoin="round"/>
</svg>
